<svg width="898" height="705" viewBox="0 0 898 705" fill="none" xmlns="http://www.w3.org/2000/svg">
<g clip-path="url(#clip0_2_2)">
<path opacity="0.1" d="M521.753 124.332C464.184 122.152 409.31 101.903 356.991 79.7535C304.672 57.6038 252.815 33.058 196.594 21.3211C160.447 13.7637 119.107 12.7007 89.9876 33.8146C61.9595 54.1268 52.9061 89.1935 48.0364 121.729C44.3737 146.212 42.2488 171.974 52.2612 194.898C59.2311 210.806 71.5998 224.182 80.1571 239.423C109.921 292.451 88.8797 357.846 56.6184 409.667C41.4882 433.988 23.9355 457.128 12.2612 482.989C0.586946 508.85 -4.82025 538.476 5.39886 564.85C15.527 590.972 39.6527 610.627 65.7958 624.436C118.892 652.459 181.455 660.475 242.464 665.069C377.512 675.131 513.287 670.771 648.69 666.411C698.802 664.79 749.137 663.16 798.43 654.701C825.805 650.008 854.073 642.568 873.949 624.607C899.174 601.8 905.433 563.193 888.525 534.594C860.166 486.637 781.762 474.72 761.935 423.25C751.03 394.921 762.233 363.359 778.091 337.083C812.097 280.723 869.112 231.271 872.113 166.839C874.18 122.585 846.772 78.2763 804.391 57.3335C759.976 35.3639 698.38 38.1383 665.614 74.448C631.873 111.857 572.576 126.251 521.753 124.332Z" fill="#6C63FF"/>
<path d="M200.29 653.089C200.29 653.089 154.816 615.635 146.226 567.994C142.742 547.985 133.398 529.745 119.595 516.011C112.992 509.55 105.86 503.761 98.2886 498.716" stroke="#535461" stroke-width="2" stroke-miterlimit="10"/>
<path d="M92.7243 468.703C96.7095 474.576 98.5119 499.464 98.5119 499.464C98.5119 499.464 77.2055 490.321 73.2121 484.457C71.2946 481.638 70.4834 478.105 70.9571 474.634C71.4308 471.164 73.1505 468.04 75.738 465.951C78.3255 463.862 81.5687 462.978 84.7543 463.494C87.9398 464.01 90.8068 465.884 92.7243 468.703Z" fill="#6C63FF"/>
<path d="M130.939 488.231C131.352 495.519 120.463 517.479 120.463 517.479C120.463 517.479 107.127 497.176 106.705 489.889C106.545 486.415 107.648 483.012 109.774 480.417C111.901 477.823 114.88 476.246 118.067 476.028C121.253 475.81 124.39 476.968 126.798 479.253C129.206 481.537 130.69 484.763 130.93 488.231H130.939Z" fill="#6C63FF"/>
<path d="M167.979 544.367C164.969 550.889 145.383 563.86 145.383 563.86C145.383 563.86 143.291 538.999 146.3 532.477C147.782 529.41 150.309 527.1 153.339 526.042C156.368 524.985 159.657 525.266 162.499 526.824C165.34 528.383 167.506 531.094 168.531 534.375C169.556 537.656 169.357 541.244 167.979 544.367Z" fill="#6C63FF"/>
<path d="M187.235 593.693C185.275 600.674 167.987 617.059 167.987 617.059C167.987 617.059 162.059 592.945 164.018 585.955C164.96 582.601 167.086 579.792 169.929 578.146C172.772 576.5 176.099 576.151 179.178 577.177C182.256 578.203 184.835 580.52 186.346 583.617C187.857 586.714 188.176 590.339 187.235 593.693Z" fill="#6C63FF"/>
<path d="M100.752 535.134C107.367 536.107 128.276 525.82 128.276 525.82C128.276 525.82 110.633 509.895 103.985 508.922C100.795 508.455 97.5646 509.388 95.0054 511.515C92.4463 513.643 90.7677 516.791 90.3391 520.267C89.9104 523.743 90.7667 527.262 92.7195 530.05C94.6724 532.838 97.562 534.667 100.752 535.134Z" fill="#6C63FF"/>
<path d="M123.944 592.522C130.558 591.288 147.648 574.669 147.648 574.669C147.648 574.669 126.433 565.229 119.826 566.463C118.245 566.745 116.73 567.366 115.37 568.29C114.01 569.213 112.831 570.421 111.902 571.844C110.972 573.266 110.311 574.875 109.955 576.578C109.599 578.281 109.557 580.043 109.83 581.764C110.103 583.484 110.686 585.129 111.545 586.603C112.405 588.077 113.524 589.351 114.838 590.351C116.151 591.351 117.634 592.058 119.2 592.43C120.765 592.803 122.384 592.834 123.96 592.522H123.944Z" fill="#6C63FF"/>
<path d="M153.502 644.937C160.207 644.937 179.636 631.705 179.636 631.705C179.636 631.705 160.199 618.491 153.493 618.491C150.274 618.491 147.187 619.884 144.911 622.364C142.635 624.844 141.356 628.207 141.356 631.714C141.356 635.221 142.635 638.584 144.911 641.064C147.187 643.544 150.274 644.937 153.493 644.937H153.502Z" fill="#6C63FF"/>
<path d="M642.043 329.148C642.043 329.148 670.071 275.057 712.32 259.474C730.061 253.055 745.413 240.542 756.073 223.813C761.073 215.814 765.388 207.333 768.963 198.474" stroke="#535461" stroke-width="2" stroke-miterlimit="10"/>
<path d="M795.486 188.566C790.675 193.646 768.277 198.906 768.277 198.906C768.277 198.906 773.775 174.676 778.587 169.587C780.91 167.217 783.993 165.937 787.174 166.02C790.355 166.103 793.378 167.544 795.594 170.032C797.809 172.52 799.039 175.857 799.019 179.323C798.999 182.789 797.73 186.108 795.486 188.566Z" fill="#6C63FF"/>
<path d="M782.82 232.37C776.206 233.793 754.817 224.948 754.817 224.948C754.817 224.948 771.518 207.833 778.091 206.437C779.669 206.055 781.301 206.021 782.892 206.336C784.482 206.651 785.999 207.309 787.353 208.272C788.707 209.234 789.871 210.482 790.776 211.941C791.681 213.4 792.31 215.042 792.625 216.769C792.94 218.497 792.935 220.275 792.611 222.001C792.286 223.726 791.648 225.363 790.735 226.817C789.822 228.27 788.651 229.51 787.292 230.463C785.933 231.417 784.412 232.065 782.82 232.37Z" fill="#6C63FF"/>
<path d="M736.718 279.822C730.385 277.435 715.991 258.014 715.991 258.014C715.991 258.014 738.314 252.448 744.664 254.835C746.189 255.386 747.599 256.262 748.812 257.412C750.024 258.562 751.015 259.963 751.726 261.533C752.437 263.103 752.856 264.812 752.956 266.559C753.056 268.307 752.837 270.059 752.311 271.714C751.785 273.369 750.962 274.893 749.891 276.199C748.82 277.504 747.521 278.565 746.07 279.319C744.62 280.073 743.046 280.506 741.441 280.593C739.835 280.679 738.23 280.417 736.718 279.822Z" fill="#6C63FF"/>
<path d="M694.354 307.169C687.739 305.98 670.575 289.451 670.575 289.451C670.575 289.451 691.733 279.849 698.339 281.038C701.518 281.608 704.36 283.53 706.238 286.383C708.117 289.235 708.878 292.783 708.355 296.247C707.832 299.711 706.068 302.807 703.45 304.854C700.832 306.9 697.575 307.73 694.395 307.16L694.354 307.169Z" fill="#6C63FF"/>
<path d="M736.14 206.004C736.131 213.31 748.293 234.505 748.293 234.505C748.293 234.505 760.439 213.337 760.439 206.04C760.481 204.276 760.199 202.519 759.608 200.875C759.017 199.231 758.13 197.733 756.999 196.468C755.868 195.203 754.517 194.198 753.024 193.512C751.53 192.826 749.926 192.472 748.306 192.472C746.685 192.472 745.081 192.826 743.588 193.512C742.095 194.198 740.743 195.203 739.612 196.468C738.481 197.733 737.594 199.231 737.004 200.875C736.413 202.519 736.13 204.276 736.173 206.04L736.14 206.004Z" fill="#6C63FF"/>
<path d="M687.004 238.666C689.004 245.638 706.4 261.897 706.4 261.897C706.4 261.897 712.188 237.738 710.17 230.766C709.124 227.536 706.968 224.874 704.157 223.341C701.345 221.808 698.097 221.524 695.097 222.548C692.096 223.571 689.578 225.824 688.071 228.83C686.565 231.837 686.188 235.363 687.02 238.666H687.004Z" fill="#6C63FF"/>
<path d="M643.291 277.552C644.184 284.758 658.802 304.007 658.802 304.007C658.802 304.007 668.235 281.263 667.343 274.03C667.165 272.278 666.668 270.581 665.881 269.041C665.093 267.501 664.03 266.148 662.756 265.062C661.481 263.976 660.02 263.178 658.458 262.716C656.896 262.254 655.265 262.137 653.661 262.372C652.057 262.607 650.513 263.189 649.118 264.084C647.724 264.979 646.508 266.168 645.542 267.583C644.575 268.997 643.879 270.608 643.492 272.32C643.106 274.032 643.037 275.811 643.291 277.552Z" fill="#6C63FF"/>
<path opacity="0.25" d="M795.486 188.566C790.675 193.646 768.277 198.906 768.277 198.906C768.277 198.906 773.775 174.676 778.587 169.587C780.91 167.217 783.993 165.937 787.174 166.02C790.355 166.103 793.378 167.544 795.594 170.032C797.809 172.52 799.039 175.857 799.019 179.323C798.999 182.789 797.73 186.108 795.486 188.566Z" fill="black"/>
<path opacity="0.25" d="M782.82 232.37C776.206 233.793 754.817 224.948 754.817 224.948C754.817 224.948 771.518 207.833 778.091 206.437C779.669 206.055 781.301 206.021 782.892 206.336C784.482 206.651 785.999 207.309 787.353 208.272C788.707 209.234 789.871 210.482 790.776 211.941C791.681 213.4 792.31 215.042 792.625 216.769C792.94 218.497 792.935 220.275 792.611 222.001C792.286 223.726 791.648 225.363 790.735 226.817C789.822 228.27 788.651 229.51 787.292 230.463C785.933 231.417 784.412 232.065 782.82 232.37Z" fill="black"/>
<path opacity="0.25" d="M736.718 279.822C730.385 277.435 715.991 258.014 715.991 258.014C715.991 258.014 738.314 252.448 744.664 254.835C746.189 255.386 747.599 256.262 748.812 257.412C750.024 258.562 751.015 259.963 751.726 261.533C752.437 263.103 752.856 264.812 752.956 266.559C753.056 268.307 752.837 270.059 752.311 271.714C751.785 273.369 750.962 274.893 749.891 276.199C748.82 277.504 747.521 278.565 746.07 279.319C744.62 280.073 743.046 280.506 741.441 280.593C739.835 280.679 738.23 280.417 736.718 279.822Z" fill="black"/>
<path opacity="0.25" d="M694.354 307.169C687.739 305.98 670.575 289.451 670.575 289.451C670.575 289.451 691.733 279.849 698.339 281.038C701.518 281.608 704.36 283.53 706.238 286.383C708.117 289.235 708.878 292.783 708.355 296.247C707.832 299.711 706.068 302.807 703.45 304.854C700.832 306.9 697.575 307.73 694.395 307.16L694.354 307.169Z" fill="black"/>
<path opacity="0.25" d="M736.14 206.004C736.131 213.31 748.293 234.505 748.293 234.505C748.293 234.505 760.439 213.337 760.439 206.04C760.481 204.276 760.199 202.519 759.608 200.875C759.017 199.231 758.13 197.733 756.999 196.468C755.868 195.203 754.517 194.198 753.024 193.512C751.53 192.826 749.926 192.472 748.306 192.472C746.685 192.472 745.081 192.826 743.588 193.512C742.095 194.198 740.743 195.203 739.612 196.468C738.481 197.733 737.594 199.231 737.004 200.875C736.413 202.519 736.13 204.276 736.173 206.04L736.14 206.004Z" fill="black"/>
<path opacity="0.25" d="M687.004 238.666C689.004 245.638 706.4 261.897 706.4 261.897C706.4 261.897 712.188 237.738 710.17 230.766C709.124 227.536 706.968 224.874 704.157 223.341C701.345 221.808 698.097 221.524 695.097 222.548C692.096 223.571 689.578 225.824 688.071 228.83C686.565 231.837 686.188 235.363 687.02 238.666H687.004Z" fill="black"/>
<path opacity="0.25" d="M643.291 277.552C644.184 284.758 658.802 304.007 658.802 304.007C658.802 304.007 668.235 281.263 667.343 274.03C667.165 272.278 666.668 270.581 665.881 269.041C665.093 267.501 664.03 266.148 662.756 265.062C661.481 263.976 660.02 263.178 658.458 262.716C656.896 262.254 655.265 262.137 653.661 262.372C652.057 262.607 650.513 263.189 649.118 264.084C647.724 264.979 646.508 266.168 645.542 267.583C644.575 268.997 643.879 270.608 643.492 272.32C643.106 274.032 643.037 275.811 643.291 277.552Z" fill="black"/>
<path d="M643.655 328.076C643.655 328.076 649.161 266.247 681.952 233.37C695.782 219.667 705.164 201.451 708.69 181.45C710.295 171.941 711.095 162.293 711.08 152.625" stroke="#535461" stroke-width="2" stroke-miterlimit="10"/>
<path d="M731.634 131.764C729.153 138.537 710.6 153.238 710.6 153.238C710.6 153.238 706.615 128.656 709.12 121.882C710.326 118.63 712.669 116.032 715.633 114.661C718.596 113.291 721.939 113.259 724.924 114.573C727.91 115.886 730.294 118.439 731.552 121.668C732.81 124.897 732.84 128.538 731.634 131.791V131.764Z" fill="#6C63FF"/>
<path d="M736.355 177.45C730.873 181.648 707.996 183.026 707.996 183.026C707.996 183.026 716.908 160.021 722.39 155.823C723.69 154.763 725.172 153.998 726.748 153.573C728.325 153.148 729.963 153.073 731.567 153.35C733.17 153.628 734.707 154.253 736.085 155.189C737.462 156.125 738.654 157.353 739.588 158.799C740.523 160.246 741.181 161.882 741.525 163.611C741.869 165.34 741.89 167.127 741.589 168.865C741.287 170.603 740.669 172.258 739.77 173.731C738.87 175.204 737.709 176.466 736.355 177.441V177.45Z" fill="#6C63FF"/>
<path d="M711.832 241.206C705.152 241.819 684.763 230.397 684.763 230.397C684.763 230.397 703.118 215.444 709.798 214.832C713.006 214.538 716.19 215.645 718.649 217.908C721.108 220.172 722.641 223.407 722.911 226.902C723.181 230.397 722.165 233.866 720.087 236.545C718.009 239.224 715.04 240.894 711.832 241.188V241.206Z" fill="#6C63FF"/>
<path d="M683.3 284.884C676.809 286.686 654.949 279.236 654.949 279.236C654.949 279.236 670.716 261.122 677.206 259.285C680.322 258.404 683.631 258.909 686.406 260.686C689.181 262.464 691.193 265.37 692.001 268.765C692.809 272.16 692.347 275.765 690.715 278.788C689.083 281.811 686.415 284.004 683.3 284.884Z" fill="#6C63FF"/>
<path d="M683.878 173.955C686.59 180.63 705.557 194.673 705.557 194.673C705.557 194.673 708.781 169.956 706.069 163.281C704.718 160.158 702.299 157.735 699.33 156.529C696.361 155.324 693.076 155.431 690.178 156.828C687.281 158.226 684.999 160.802 683.822 164.008C682.645 167.213 682.665 170.793 683.878 173.982V173.955Z" fill="#6C63FF"/>
<path d="M651.104 225.497C655.528 230.983 677.471 238.171 677.471 238.171C677.471 238.171 673.767 213.535 669.343 208.049C668.299 206.717 667.022 205.623 665.587 204.833C664.152 204.042 662.587 203.571 660.983 203.445C659.379 203.319 657.768 203.542 656.243 204.1C654.719 204.659 653.312 205.541 652.103 206.698C650.895 207.854 649.909 209.26 649.204 210.834C648.499 212.409 648.088 214.12 647.995 215.87C647.902 217.619 648.129 219.371 648.663 221.023C649.196 222.676 650.026 224.197 651.104 225.497Z" fill="#6C63FF"/>
<path d="M625.565 280.371C629.07 286.587 649.583 297.711 649.583 297.711C649.583 297.711 649.757 272.751 646.276 266.527C644.543 263.653 641.851 261.627 638.771 260.88C635.69 260.132 632.463 260.721 629.775 262.522C627.086 264.323 625.147 267.194 624.369 270.526C623.591 273.858 624.034 277.39 625.606 280.371H625.565Z" fill="#6C63FF"/>
<path d="M601.489 85.9418C602.861 80.4561 604.515 74.9434 605.672 69.3857C604.283 74.9434 602.621 80.4741 601.489 85.9418Z" fill="url(#paint0_linear_2_2)"/>
<path d="M595.337 138.781C595.222 138.564 595.139 138.348 595.048 138.15C595.048 138.06 594.965 137.988 594.932 137.898C594.752 137.99 594.567 138.072 594.378 138.141C594.015 138.294 593.643 138.438 593.262 138.555C592.882 138.672 592.725 138.735 592.435 138.808C592.196 138.898 591.949 138.967 591.7 139.015L591.766 139.177C592.072 139.105 592.369 139.042 592.675 138.952L592.758 140.069C593.105 140.069 593.428 140.015 593.742 140.015C593.89 140.006 594.04 140.006 594.188 140.015C594.833 140.015 595.395 140.015 595.842 140.015C595.668 139.609 595.486 139.186 595.337 138.781ZM763.176 429.844C759.29 424.142 751.534 362.944 751.534 362.944C751.534 362.944 736.28 319.428 740.439 302.062C744.598 284.695 729.079 240.26 729.079 240.26C729.079 240.26 718.827 235.405 718.273 228.199C718.273 228.199 676.412 213.787 674.453 202.978C672.865 194.114 646.904 187.755 637.578 185.746C634.734 173.244 631.873 161.579 629.765 155.21C629.194 153.229 628.657 151.517 628.161 150.166C624.598 140.258 613.585 139.357 605.598 140.15C605.252 138.461 604.609 136.861 603.705 135.439C603.573 134.95 603.311 134.514 602.952 134.187C602.781 134.027 602.598 133.883 602.406 133.754C602.262 133.462 602.072 133.2 601.844 132.98C601.617 132.757 601.368 132.564 601.1 132.403C600.908 132.29 600.709 132.191 600.505 132.106C600.026 131.907 599.53 131.759 599.025 131.664C598.436 131.533 597.839 131.448 597.239 131.412C598.698 130.717 599.999 129.681 601.051 128.377C601.766 127.461 602.298 126.394 602.613 125.242C602.875 124.284 602.992 123.286 602.96 122.288C602.746 122.699 602.497 123.088 602.216 123.45C602.564 119.459 600.629 115.406 599.521 111.433C598.179 106.262 597.93 100.826 598.793 95.5349C599.901 87.5541 602.646 79.4833 604.507 71.3584C604.511 71.3135 604.511 71.2682 604.507 71.2233C605.482 67.1883 606.086 63.0574 606.309 58.8919C606.631 50.4877 604.655 42.1016 601.48 34.4452C598.661 27.6624 594.502 20.9878 588.136 18.2314C583.407 16.1507 578.107 16.4839 573.014 16.1417C561.588 15.367 550.691 10.9893 539.827 7.00793C528.963 3.02655 517.785 -0.594515 506.35 0.0990724C494.916 0.79266 483.15 6.80074 477.933 17.8261C476.28 21.267 475.329 25.0952 473.353 28.329C469.649 34.4271 463.018 37.4807 457.487 41.6873C451.956 45.8939 447.086 51.8659 445.085 58.9909C443.993 62.8296 443.839 66.9126 444.639 70.836C444.819 71.722 445.051 72.5945 445.333 73.4482C446.118 75.8282 447.342 78.0079 448.93 79.8526C450.127 81.216 451.504 82.3786 453.014 83.3025C454.911 84.448 456.941 85.3085 459.05 85.8607C458.975 86.1309 458.901 86.4192 458.818 86.6984C458.686 87.1578 458.57 87.5992 458.446 88.0946C458.173 89.2025 457.917 90.3285 457.702 91.4634C457.693 91.5442 457.693 91.6259 457.702 91.7066C456.686 96.8302 456.176 102.057 456.181 107.299C456.179 109.778 456.295 112.255 456.528 114.721C459.835 151.274 487.532 180.108 521.753 181.981C522.927 182.044 524.11 182.08 525.308 182.08C525.854 182.08 526.392 182.08 526.962 182.08C527.499 182.855 528.029 183.648 528.533 184.422C529.037 185.197 529.5 185.99 529.938 186.764L528.74 185.413L527.541 184.215C527.216 184.701 526.853 185.156 526.458 185.575C525.676 185.276 524.878 185.029 524.068 184.837C520.637 184.008 515.412 183.702 508.533 185.962C502.208 188.025 494.478 192.268 485.432 200.33L441.356 229.154L417.512 244.953L408.921 267.833C408.921 267.833 402.464 295.018 395.279 326.166C394.998 326.256 394.725 326.346 394.453 326.454C393.871 326.382 393.285 326.346 392.7 326.346C388.531 326.336 384.521 328.086 381.512 331.228C378.502 334.371 376.728 338.662 376.561 343.2C362.274 362.116 361.464 381.032 364.82 389.715C365.124 390.529 365.507 391.305 365.961 392.03C368.161 395.489 372.27 404.406 376.437 413.909C376.329 414.693 376.263 415.351 376.23 415.846C376.223 416.008 376.223 416.171 376.23 416.333C376.23 416.333 378.711 457.146 370.443 468.847C368.632 471.396 368.905 474.747 370.443 478.458C375.982 491.807 397.884 509.634 397.884 509.634C397.884 509.634 424.151 509.48 438.785 507.742C438.744 509.345 438.711 510.94 438.678 512.498C438.347 528.243 438.347 541.439 438.347 541.439L437.801 557.951C437.801 557.951 432.84 592.747 430.36 602.34C428.797 608.357 430.6 664.069 432.171 705.027H690.972C694.015 680.796 689.724 607.177 689.724 607.177C689.724 607.177 685.648 588.144 685.499 571.552C685.491 571.534 685.486 571.514 685.486 571.493C685.486 571.473 685.491 571.453 685.499 571.435C685.499 569.985 685.499 568.57 685.548 567.183L687.425 567.111L690.798 566.985H691.104C691.104 566.985 691.187 566.643 691.377 566.084C691.824 564.693 692.432 563.37 693.188 562.148C694.626 559.833 696.875 557.563 700.257 557.41C702.126 557.329 705.019 555.681 708.285 553.249C708.307 553.254 708.329 553.254 708.351 553.249C717.14 546.772 728.756 534.819 731.576 532.855C735.453 530.153 754.023 512.138 754.023 512.138C754.023 512.138 756.793 508.318 759.744 503.716L759.852 503.553C763.523 497.789 767.425 490.898 766.466 488.727C764.813 484.836 767.574 475.531 767.574 475.531C776.197 458.335 767.061 435.546 763.176 429.844ZM603.299 152.787C603.379 153.056 603.429 153.334 603.448 153.616C603.242 153.319 603.035 153.004 602.828 152.715L602.63 152.427L602.489 152.211L602.803 151.742C602.803 151.742 602.803 151.742 602.803 151.806C603.022 152.098 603.19 152.43 603.299 152.787ZM600.521 144.807C599.62 145.005 598.909 145.185 598.446 145.32C597.859 144.185 597.297 143.05 596.793 141.897C598.118 142.735 599.367 143.709 600.521 144.807ZM598.967 146.23C598.965 146.212 598.965 146.194 598.967 146.176L599.033 146.23C599.372 146.473 599.703 146.707 600.009 146.95C600.282 147.167 600.53 147.374 600.778 147.59C600.612 147.905 600.43 148.23 600.249 148.491C599.959 147.995 599.686 147.518 599.422 147.023C599.256 146.824 599.108 146.554 598.967 146.23ZM594.006 135.114C595.604 134.943 597.213 134.943 598.81 135.114C599.033 135.114 599.232 135.159 599.43 135.195C599.878 135.271 600.319 135.395 600.745 135.565C601.722 137.054 602.323 138.796 602.489 140.618L602.043 140.69L601.605 140.78C600.778 140.933 599.951 141.086 599.306 141.231L598.479 141.42C597.38 141.681 596.743 141.879 596.718 141.888C596.611 141.645 596.503 141.42 596.387 141.186C596.206 140.798 596.015 140.402 595.85 140.015C595.685 139.627 595.47 139.186 595.296 138.781C595.18 138.564 595.098 138.348 595.007 138.15C595.007 138.06 594.924 137.988 594.891 137.898C594.843 137.802 594.801 137.703 594.767 137.601C594.263 136.484 593.8 135.367 593.353 134.268C593.304 134.16 593.262 134.043 593.221 133.934L593.849 133.889V134.124L594.006 135.114ZM396.743 693.894C396.677 680.481 395.784 665.97 393.303 652.35C392.245 646.559 391.154 640.767 390.046 635.074C389.765 633.651 389.492 632.245 389.219 630.84L386.673 631.21H386.441C379.496 595.53 372.237 564.094 372.237 564.094C372.237 564.094 357.818 504.112 359.488 499.329C359.703 498.707 359.43 497.032 358.818 494.573C355.329 480.935 340.761 443.355 335.668 430.511C335.668 430.457 335.627 430.393 335.61 430.348C334.783 428.196 334.188 426.745 334.006 426.322L335.205 407.154L335.271 406.001L335.428 403.551L335.362 403.488L335.428 402.353C335.428 402.353 322.844 391.111 301.53 382.995C300.703 382.671 299.827 382.356 298.959 382.05C300.025 374.294 301.439 365.539 303.283 357.008C303.456 356.153 303.646 355.324 303.845 354.486C304.018 353.648 304.217 352.838 304.415 352.018C304.73 350.685 305.068 349.37 305.416 348.073C306.565 347.676 307.698 347.235 308.814 346.767L309.244 346.586C322.994 340.757 334.34 329.698 341.18 315.455C348.021 301.212 349.893 284.752 346.449 269.121C344.486 260.256 340.86 251.93 335.8 244.665C335.42 244.107 335.015 243.548 334.61 242.999C334.205 242.449 333.717 241.837 333.262 241.278C335.651 235.36 338.471 229.731 338.702 223.975C338.744 223.246 338.744 222.515 338.702 221.786V221.696C338.396 217.994 336.892 214.246 333.386 210.31C328.268 204.536 320.984 201.609 313.7 200.204C306.416 198.798 298.992 198.762 291.666 197.816C279.521 196.231 267.689 192.151 255.544 190.899C240.584 189.389 225.522 192.185 211.865 199.006C202.828 203.509 193.675 211.382 193.13 222.182C192.683 231.109 198.388 239.666 196.949 248.484C195.519 257.15 187.416 263.969 188.128 272.733C188.4 276.156 190.013 279.218 192.03 281.948C192.724 282.849 193.46 283.749 194.221 284.65C197.164 288.046 200.405 291.307 202.051 295.585C202.117 295.765 202.183 295.946 202.241 296.126C203.638 300.35 203.01 305.692 199.554 308.115C199.573 308.131 199.587 308.153 199.595 308.178C199.645 308.25 199.694 308.304 199.736 308.376C199.741 308.362 199.741 308.346 199.736 308.331C200.961 309.914 202.613 311.036 204.457 311.538L205.159 311.772C204.589 312.448 204.051 313.15 203.506 313.889L203.15 314.402C202.239 315.737 201.41 317.136 200.67 318.591C200.248 319.401 199.843 320.212 199.504 321.023C198.371 323.494 197.55 326.121 197.065 328.832C196.18 334.796 197.429 341.011 196.089 346.848C194.436 354.054 189.202 359.585 186.251 366.277C180.662 378.888 183.828 393.687 184.953 407.613C186.482 426.529 184.002 445.526 181.53 464.316C180.218 474.309 178.906 484.31 177.594 494.321C174.287 519.446 170.98 544.571 167.673 569.696C166.466 578.902 165.035 588.612 159.405 595.719H159.463C159.463 595.719 159.463 595.774 159.405 595.792C161.095 596.596 162.893 597.101 164.729 597.287C172.08 598.088 179.868 594.215 186.482 589.982C191.72 586.684 196.681 582.889 201.307 578.641C200.629 581.343 199.901 584.289 199.124 587.46C199.126 587.489 199.126 587.52 199.124 587.55C189.789 626.282 174.775 697.29 174.775 697.29C174.775 697.29 173.411 700.379 171.641 704.982H404.796C402.067 701.379 399.529 697.929 397.545 695.146L396.743 693.894ZM224.109 335.75C224.167 335.642 224.209 335.543 224.266 335.444C224.266 335.732 224.266 336.012 224.266 336.282C224.266 336.552 224.266 336.795 224.266 337.047C224.266 337.3 224.266 337.273 224.266 337.399C224.266 337.768 224.192 338.137 224.134 338.507C224.134 338.507 224.134 338.552 224.134 338.588L224.961 338.921L225.92 339.353C231.586 341.791 237.324 343.998 243.134 345.974C243.729 346.181 244.333 346.379 244.936 346.568L245.06 347.685C245.209 348.829 245.35 349.991 245.482 351.153C245.482 351.153 245.482 351.207 245.482 351.243C245.854 354.459 246.218 357.666 246.54 360.801C246.54 360.801 231.36 354.495 231.55 364.07C231.542 364.241 231.542 364.413 231.55 364.584C231.534 364.812 231.534 365.04 231.55 365.268C231.691 372.727 233.832 377.149 234.262 379.419C234.237 379.513 234.191 379.6 234.13 379.672C233.763 380.541 233.637 381.508 233.766 382.455C233.752 384.066 233.868 385.676 234.113 387.265C233.667 387.562 233.229 387.859 232.791 388.166C232.46 388.391 232.146 388.643 231.823 388.895C229.795 381.23 227.141 373.778 223.894 366.628C221.621 361.53 219.066 356.216 219.091 350.622C219.091 350.262 219.091 349.892 219.132 349.523C219.224 347.902 219.508 346.3 219.975 344.758C220.166 344.172 220.372 343.596 220.604 343.029C221.144 341.68 221.748 340.363 222.414 339.083C222.844 338.236 223.299 337.399 223.737 336.552C223.878 336.3 224.01 336.039 224.142 335.786L224.109 335.75ZM595.337 138.781C595.222 138.564 595.139 138.348 595.048 138.15C595.048 138.06 594.965 137.988 594.932 137.898C594.752 137.99 594.567 138.072 594.378 138.141C594.015 138.294 593.643 138.438 593.262 138.555C592.882 138.672 592.725 138.735 592.435 138.808L591.7 139.015L591.766 139.177C592.072 139.105 592.369 139.042 592.675 138.952L592.758 140.069C593.105 140.069 593.428 140.015 593.742 140.015H594.188C594.833 140.015 595.395 140.015 595.842 140.015C595.668 139.609 595.486 139.186 595.337 138.781Z" fill="url(#paint1_linear_2_2)"/>
<path d="M414.684 271.085L409.723 273.472C409.723 273.472 377.388 410.333 377.388 421.395C377.388 432.456 445.953 494.005 445.953 494.005L456.652 415.333C456.652 415.333 441.29 234.919 414.684 271.085Z" fill="#E8F5FF"/>
<path d="M565.085 227.551L536.437 211.265C534.832 203.812 531.985 196.744 528.037 190.412C523.845 183.819 518.272 177.342 511.327 173.964C493.775 165.389 585.573 120.378 585.573 120.378C587.019 125.785 588.722 131.107 590.674 136.321C595.404 149.04 603.25 165.488 613.361 170.172C630.55 178.144 565.085 227.551 565.085 227.551Z" fill="#FFC1C7"/>
<path opacity="0.1" d="M590.674 136.321C586.752 151.351 578.595 164.658 567.356 174.363C556.117 184.069 542.363 189.683 528.037 190.412C523.845 183.819 518.272 177.342 511.327 173.964C493.775 165.389 585.573 120.378 585.573 120.378C587.019 125.785 588.722 131.107 590.674 136.321Z" fill="black"/>
<path d="M593.254 113.595C593.257 128.335 589.248 142.745 581.734 155.002C574.22 167.26 563.538 176.814 551.039 182.457C538.54 188.099 524.786 189.577 511.517 186.703C498.247 183.829 486.058 176.732 476.49 166.31C466.923 155.888 460.408 142.609 457.768 128.152C455.128 113.696 456.483 98.7112 461.661 85.0935C466.839 71.4759 475.607 59.837 486.857 51.6489C498.107 43.4608 511.333 39.0913 524.862 39.0931C533.854 39.0478 542.766 40.9439 551.082 44.6718C559.398 48.3997 566.953 53.8856 573.312 60.8127C579.671 67.7398 584.707 75.9708 588.13 85.0303C591.553 94.0898 593.294 103.798 593.254 113.595Z" fill="#FFC1C7"/>
<path d="M603.126 217.985L584.473 265.401L568.02 296.873H515.354L499.992 253.844L506.218 209.22H546.441L572.411 207.626L581.183 204.437L586.838 207.932L603.126 217.985Z" fill="#575A89"/>
<path opacity="0.1" d="M596.702 154.778C596.702 154.778 608.335 157.48 597.917 166.785C587.5 176.09 551.559 205.68 551.559 205.68C551.559 205.68 564.184 217.931 561.571 232.28L603.399 206.878L610.84 166.236C610.84 166.236 611.675 154.021 596.702 154.778Z" fill="black"/>
<path opacity="0.1" d="M559.786 205.68L533.179 210.463C533.179 210.463 538.669 232.577 535.924 238.855C535.842 239.05 535.772 239.252 535.718 239.459L524.862 271.427L532.998 296.531L561.158 254.691L551.559 238.855C551.559 238.855 561.704 224.209 567.739 219.129C573.775 214.048 559.786 205.68 559.786 205.68Z" fill="black"/>
<path d="M559.786 204.446L533.179 209.22C533.179 209.22 538.669 231.334 535.924 237.612C535.842 237.807 535.772 238.009 535.718 238.216L524.862 270.184L532.998 295.288L561.158 253.421L551.559 237.585C551.559 237.585 561.704 222.939 567.739 217.858C573.775 212.778 559.786 204.446 559.786 204.446Z" fill="#DCE6F2"/>
<path d="M597.818 152.391C597.818 152.391 609.451 155.093 599.025 164.398C588.599 173.703 551.559 205.68 551.559 205.68C551.559 205.68 565.275 215.544 562.671 229.884L604.498 204.491L611.939 163.849C611.939 163.849 612.766 151.634 597.818 152.391Z" fill="#575A89"/>
<path opacity="0.1" d="M529.864 193.232C529.864 193.232 532.402 198.402 543.605 207.725C543.605 207.725 524.953 218.534 532.088 233.73L503.556 225.623L499.165 210.679L529.864 193.232Z" fill="black"/>
<path d="M528.764 192.043C528.764 192.043 531.303 197.213 542.506 206.536C542.506 206.536 523.853 217.291 530.988 232.532L502.464 224.425L498.074 209.49L528.764 192.043Z" fill="#575A89"/>
<path opacity="0.1" d="M603.126 217.985L584.473 265.401L568.053 296.873H515.354L499.992 253.844L506.21 209.22H517.396C517.214 219.633 520.703 231.865 520.48 236.414C520.1 243.891 530.716 284.227 530.716 284.227C530.716 284.227 552.931 245.08 561.704 241.594C567.218 239.405 578.901 221.191 586.83 207.932L603.126 217.985Z" fill="black"/>
<path d="M676.603 467.505L674.709 470.099C674.709 470.099 688.426 545.106 684.631 562.139C683.986 565.209 683.617 568.341 683.531 571.489V571.624C682.861 588.955 687.665 611.447 687.665 611.447C687.665 611.447 691.501 677.743 689.319 705.009H432.501C430.997 664.691 429.376 612.456 430.848 606.664C433.328 597.107 438.289 562.436 438.289 562.436L438.835 546.006C438.835 546.006 438.835 530.126 439.281 512.435C439.471 504.481 439.752 496.131 440.157 488.727C440.678 479.413 441.406 471.567 442.406 467.712C443.023 464.79 443.377 461.809 443.465 458.813C443.465 458.533 443.465 458.245 443.514 457.957C443.514 457.056 443.597 456.083 443.63 455.083C443.63 454.804 443.63 454.525 443.63 454.183C443.787 448.382 443.729 441.5 443.556 434.366C443.556 433.979 443.556 433.582 443.556 433.186C443.415 427.835 443.208 422.377 442.977 417.188C442.258 400.975 441.323 387.265 441.323 387.265L409.781 273.409L418.281 250.601L441.869 234.856L485.482 206.167C506.755 187.115 520.761 189.403 526.102 191.493C526.621 191.686 527.129 191.912 527.623 192.169C527.789 192.259 527.921 192.331 528.045 192.412C528.215 192.5 528.378 192.602 528.533 192.718C527.07 193.485 525.8 194.625 524.829 196.042C523.735 197.655 522.956 199.494 522.539 201.447C522.259 202.657 522.063 203.889 521.952 205.131C521.844 206.437 521.803 207.788 521.803 209.148C521.862 212.131 522.097 215.107 522.506 218.057C522.506 218.111 522.506 218.183 522.506 218.255C522.778 220.363 523.117 222.425 523.448 224.362C523.444 224.395 523.444 224.428 523.448 224.461C523.828 226.722 524.209 228.812 524.465 230.613C524.515 230.938 524.556 231.235 524.597 231.514C524.78 232.705 524.865 233.91 524.854 235.117C524.947 238.031 525.307 240.928 525.929 243.764C526.144 244.953 526.392 246.224 526.664 247.548C527.036 249.349 527.442 251.313 527.88 253.313C528.12 254.411 528.376 255.546 528.64 256.672C528.74 257.123 528.847 257.573 528.946 258.033L529.112 258.744C530.873 266.374 532.783 273.967 533.957 278.561C534.651 281.263 535.089 282.93 535.089 282.93C535.089 282.93 547.541 260.996 557.479 248.511C557.628 248.331 557.76 248.16 557.9 247.998C558.884 246.764 559.852 245.638 560.778 244.647C562.803 242.449 564.622 240.882 566.086 240.305C566.398 240.181 566.699 240.027 566.987 239.846C571.055 237.333 577.619 228.208 583.762 218.651C584.366 217.75 584.953 216.769 585.548 215.841C586.912 213.697 588.235 211.544 589.484 209.481C590.443 207.905 591.361 206.374 592.229 204.915C596.363 197.907 599.273 192.682 599.273 192.682L605.011 192.403L606.011 192.349H606.681L632.733 191.034C632.733 191.034 633.858 191.241 635.71 191.646C635.809 191.646 635.908 191.646 636.015 191.718C645.259 193.718 670.939 200.05 672.51 208.833C674.428 219.588 715.85 233.937 715.85 233.937C716.396 241.143 726.541 245.89 726.541 245.89C726.541 245.89 741.902 290.118 737.793 307.448C733.734 324.563 748.36 366.899 748.748 368.088L745.945 371.943L676.603 467.505Z" fill="#E8F5FF"/>
<path opacity="0.1" d="M596.693 151.634C596.693 151.634 622.051 143.798 627.814 159.93C633.576 176.063 646.466 241.215 646.466 241.215C646.466 241.215 612.998 248.088 604.225 241.215C599.08 237.136 592.711 235.322 586.392 236.135L567.466 250.178L561.877 248.376C561.877 248.376 592.154 199.339 598.736 182.675C605.317 166.011 607.541 158.561 596.693 151.634Z" fill="black"/>
<path d="M595.594 148.031C595.594 148.031 620.968 140.195 626.755 156.327C632.543 172.46 645.408 237.612 645.408 237.612C645.408 237.612 611.948 244.485 603.167 237.612C598.025 233.533 591.659 231.719 585.342 232.532L566.4 246.575L560.811 244.773C560.811 244.773 591.088 195.736 597.669 179.072C604.25 162.408 606.441 154.976 595.594 148.031Z" fill="#E8F5FF"/>
<path opacity="0.1" d="M425.383 407.946C425.383 407.946 444.308 413.027 447.88 424.683C451.451 436.339 433.89 436.636 433.89 436.636C433.89 436.636 423.192 416.017 425.383 407.946Z" fill="black"/>
<path opacity="0.1" d="M495.875 494.005C495.875 494.005 449.525 597.404 460.224 607.267C470.922 617.131 495.875 494.005 495.875 494.005Z" fill="black"/>
<path opacity="0.1" d="M559.786 417.81C559.786 417.81 596.817 518.245 589.409 533.756C582.001 549.267 605.317 533.756 605.317 533.756L559.786 417.81Z" fill="black"/>
<path d="M611.352 517.02C611.352 517.02 486.276 523.595 522.762 566.03C559.248 608.465 634.122 567.832 634.122 567.832L611.352 517.02Z" fill="#FFC1C7"/>
<path opacity="0.1" d="M593.254 113.595C593.265 123.369 591.504 133.048 588.07 142.077C586.921 142.221 585.772 142.312 584.664 142.366C583.01 138.411 583.895 133.844 583.928 129.494C583.961 125.143 582.489 120.027 578.645 118.856C570.98 116.505 565.689 132.115 558.132 129.296C552.344 127.152 553.857 117.586 550.526 112.064C547.888 107.695 542.605 106.461 538.496 103.723C529.757 97.8769 530.021 88.527 525.962 79.6815C521.712 70.4126 512.733 73.151 504.936 78.6186C499.017 82.7801 493.907 88.3558 487.574 91.6706C482.092 94.5531 475.933 95.598 469.856 95.7511C466.115 95.909 462.372 95.4782 458.744 94.472C463.012 76.9917 472.969 61.7993 486.76 51.7279C500.551 41.6564 517.234 37.3936 533.697 39.7342C550.16 42.0749 565.279 50.8593 576.236 64.4493C587.193 78.0393 593.238 95.5071 593.246 113.595H593.254Z" fill="black"/>
<path d="M504.961 76.2316C499.033 80.3931 493.932 85.9598 487.599 89.2926C482.117 92.1661 475.957 93.211 469.881 93.3641C462.44 93.5442 454.428 92.121 449.343 86.2661C444.672 80.8615 443.556 72.5475 445.532 65.4585C447.508 58.3694 452.245 52.4875 457.809 48.2269C463.374 43.9662 469.831 41.0208 473.518 34.9226C475.47 31.6979 476.412 27.8966 478.033 24.4647C483.217 13.4844 494.874 7.5394 506.144 6.80077C517.413 6.06215 528.583 9.71924 539.314 13.6826C550.046 17.646 560.86 22.0057 572.187 22.8253C577.231 23.1676 582.473 22.8253 587.152 24.9061C593.444 27.6895 597.57 34.3461 600.381 41.1198C603.531 48.7583 605.49 57.0994 605.16 65.4404C604.465 83.2485 593.667 100.723 598.413 117.784C599.67 122.333 602.026 126.999 600.77 131.547C598.934 138.186 591.071 139.699 584.713 140.015C583.06 136.06 583.944 131.484 583.977 127.143C584.011 122.801 582.539 117.676 578.703 116.505C571.03 114.172 565.738 129.755 558.198 126.945C552.452 124.792 553.94 115.235 550.6 109.713C547.963 105.335 542.671 104.11 538.57 101.372C529.831 95.5259 530.096 86.176 526.036 77.3305C521.753 68.0166 512.766 70.7549 504.961 76.2316Z" fill="#99607E"/>
<path d="M383.68 418.999L377.371 421.395C377.371 421.395 379.852 462.037 371.584 473.693C363.316 485.349 398.735 514.327 398.735 514.327C398.735 514.327 447.284 514.029 448.657 509.823C450.029 505.616 446.177 434.519 446.177 434.519C446.177 434.519 420.116 423.458 422.307 405.83C422.307 405.83 414.353 447.364 402.563 445.571C390.773 443.779 377.388 433.051 383.68 418.999Z" fill="#E8F5FF"/>
<path opacity="0.1" d="M404.721 458.146C413.913 458.146 421.365 450.721 421.365 441.563C421.365 432.404 413.913 424.98 404.721 424.98C395.53 424.98 388.078 432.404 388.078 441.563C388.078 450.721 395.53 458.146 404.721 458.146Z" fill="black"/>
<path d="M422.919 420.197C422.919 420.197 419.612 310.232 390.823 334.732C362.034 359.233 361.753 388.535 367.235 397.191C372.716 405.848 390.294 449.183 390.294 449.183C393.043 450.919 396.131 451.921 399.305 452.106C402.478 452.291 405.646 451.655 408.55 450.249C411.454 448.843 414.011 446.707 416.012 444.017C418.012 441.326 419.399 438.158 420.058 434.771L422.919 420.197Z" fill="#FFC1C7"/>
<path opacity="0.1" d="M602.506 141.654C602.371 141.171 602.113 140.74 601.762 140.411C600.34 138.997 597.28 138.501 592.667 138.934L592.857 141.312C599.008 140.735 600.224 142.068 600.381 142.293V142.519L600.571 142.816C601.338 143.939 601.881 145.224 602.166 146.589C602.451 147.954 602.471 149.369 602.225 150.743C600.877 158.084 592.601 163.93 592.518 163.993L592.32 164.119L592.196 164.326C588.624 170.1 568.425 186.395 563.142 190.61L562.679 190.034C560.315 192.268 539.529 212.094 538.405 219.687C537.677 224.452 532.75 226.299 530.964 226.812C529.079 225.254 522.96 219.948 519.777 214.003C516.792 208.409 528.806 197.492 529.864 193.232L528.21 191.385C528.037 192.07 512.609 207.779 516.9 215.805C520.339 222.245 526.623 227.758 528.822 229.577C528.12 236.531 523.746 277.363 517.024 287.037C508.673 299.062 501.654 359.666 502.431 380.825C503.117 399.623 498.611 435.131 483.564 450.381C480.959 453.137 477.816 455.217 474.37 456.464C470.924 457.712 467.264 458.096 463.663 457.587H463.481H463.299C463.084 457.587 441.257 460.02 422.919 443.175C407.913 429.421 399.413 406.974 397.644 376.438H397.28L397.131 367.547C401.2 366.855 404.864 364.472 407.354 360.899C409.844 357.325 410.966 352.84 410.483 348.384C410.001 343.928 407.952 339.85 404.768 337.006C401.583 334.161 397.511 332.772 393.406 333.131C389.301 333.489 385.483 335.567 382.755 338.928C380.027 342.288 378.601 346.67 378.776 351.152C378.951 355.635 380.714 359.869 383.694 362.965C386.675 366.061 390.641 367.777 394.759 367.754H394.94L395.089 376.591L394.362 376.645C396.181 408.172 405.11 431.492 420.819 445.896C432.759 456.675 448.01 462.113 463.489 461.109C464.588 461.24 465.692 461.306 466.797 461.308C473.892 461.347 480.719 458.356 485.813 452.976C501.662 436.897 506.482 400.083 505.73 380.644C504.903 358.224 512.27 299.801 519.661 289.163C526.904 278.723 531.294 238.045 532.063 230.163C534.684 229.361 540.612 226.83 541.621 220.255C542.349 215.498 556.23 200.843 564.771 192.727L564.515 192.403C569.112 188.746 583.407 177.216 590.492 169.812C592.692 167.515 594.874 165.218 597.156 163.029C599.901 160.381 603.39 156.174 604.308 151.202C604.621 149.561 604.622 147.867 604.313 146.225C604.003 144.583 603.388 143.028 602.506 141.654Z" fill="black"/>
<path d="M528.541 229.01C528.194 228.749 519.959 222.326 515.833 214.598C511.551 206.572 526.979 190.872 527.144 190.187L528.798 192.034C527.747 196.285 515.734 207.211 518.719 212.796C522.481 219.849 530.401 226.019 530.484 226.082L528.541 229.01Z" fill="#353146"/>
<path d="M562.067 192.358L560.778 190.421C561.042 190.214 587.012 169.749 591.104 163.128L591.237 162.93L591.427 162.795C591.509 162.732 599.786 156.895 601.133 149.545C601.382 148.172 601.363 146.758 601.078 145.394C600.793 144.031 600.249 142.747 599.48 141.627L599.29 141.321V141.104C599.124 140.87 597.909 139.546 591.757 140.123L591.567 137.736C596.189 137.303 599.24 137.799 600.662 139.213C601.016 139.545 601.277 139.979 601.414 140.465C602.308 141.834 602.935 143.389 603.257 145.033C603.578 146.676 603.587 148.374 603.283 150.022C602.365 155.003 598.884 159.21 596.131 161.849C593.858 164.038 591.667 166.353 589.476 168.632C581.166 177.306 562.977 191.646 562.067 192.358Z" fill="#E8F5FF"/>
<path d="M396.065 364.411L393.874 364.455L394.118 378.964L396.309 378.92L396.065 364.411Z" fill="#E8F5FF"/>
<path d="M393.692 366.61C402.528 366.61 409.69 358.807 409.69 349.181C409.69 339.554 402.528 331.751 393.692 331.751C384.856 331.751 377.694 339.554 377.694 349.181C377.694 358.807 384.856 366.61 393.692 366.61Z" fill="#6C63FF"/>
<path d="M393.692 363.656C401.03 363.656 406.978 357.175 406.978 349.181C406.978 341.186 401.03 334.705 393.692 334.705C386.354 334.705 380.405 341.186 380.405 349.181C380.405 357.175 386.354 363.656 393.692 363.656Z" fill="#E8F5FF"/>
<path d="M465.755 460.146C464.65 460.147 463.546 460.084 462.448 459.956C446.97 460.95 431.722 455.513 419.777 444.743C404.068 430.33 395.155 407.037 393.32 375.483L396.627 375.258C398.396 405.794 406.896 428.25 421.91 441.995C440.248 458.794 462.067 456.407 462.282 456.407H462.464H462.646C466.248 456.913 469.909 456.528 473.356 455.281C476.803 454.033 479.947 451.955 482.555 449.201C497.595 433.951 502.101 398.443 501.414 379.644C500.588 358.468 507.607 297.864 515.966 285.848C523.283 275.318 527.822 227.857 527.872 227.38L527.996 226.028L529.219 225.794C529.294 225.794 536.437 224.317 537.33 218.498C538.488 210.914 559.24 191.088 561.596 188.845L563.754 191.547C555.18 199.654 541.299 214.318 540.604 219.084C539.595 225.677 533.667 228.199 531.055 228.992C530.228 236.883 525.871 277.552 518.653 287.992C511.261 298.63 503.895 357.053 504.721 379.473C505.433 398.912 500.662 435.735 484.812 451.805C479.709 457.199 472.865 460.194 465.755 460.146Z" fill="#353146"/>
<g opacity="0.1">
<path d="M600.298 92.3012C601.654 86.8425 603.291 81.3479 604.432 75.8172C603.068 81.3749 601.423 86.8425 600.298 92.3012Z" fill="black"/>
<path d="M586.466 135.195C584.812 131.241 585.697 126.665 585.73 122.324C585.763 117.982 584.292 112.902 580.455 111.686C572.783 109.353 567.491 124.945 559.951 122.125C554.163 119.973 555.693 110.416 552.353 104.894C549.715 100.516 544.432 99.2911 540.331 96.5528C531.584 90.7068 531.848 81.3569 527.797 72.5114C523.539 63.2336 514.568 65.9719 506.764 71.4485C500.835 75.61 495.734 81.1857 489.401 84.5096C483.919 87.383 477.76 88.4279 471.683 88.581C464.283 88.7702 456.23 87.338 451.145 81.483C447.226 76.9792 445.813 70.3766 446.623 64.1884C446.482 64.6117 446.358 65.0351 446.234 65.4584C444.25 72.5474 445.408 80.8795 450.046 86.266C455.131 92.121 463.184 93.5442 470.583 93.3641C476.668 93.2109 482.82 92.166 488.31 89.2926C494.659 85.9598 499.761 80.3931 505.672 76.2315C513.477 70.7549 522.456 68.0166 526.706 77.2945C530.757 86.1399 530.501 95.4899 539.24 101.336C543.374 104.038 548.624 105.299 551.27 109.677C554.577 115.217 553.113 124.756 558.868 126.908C566.4 129.719 571.691 114.136 579.364 116.469C583.2 117.64 584.68 122.774 584.639 127.107C584.597 131.439 583.738 136.024 585.375 139.979C591.733 139.663 599.595 138.177 601.439 131.511C601.693 130.555 601.81 129.561 601.786 128.566C599.099 133.619 592.187 134.916 586.466 135.195Z" fill="black"/>
</g>
<path opacity="0.1" d="M735.891 357.143L745.491 368.205C745.491 368.205 753.171 429.159 757.008 434.861C760.844 440.563 769.906 463.244 761.398 480.278C761.398 480.278 758.653 489.547 760.298 493.429C761.944 497.311 747.963 516.741 747.963 516.741C747.963 516.741 729.583 534.666 725.739 537.359C721.894 540.052 701.605 561.563 694.75 561.86C687.896 562.157 685.656 571.426 685.656 571.426L646.979 572.921C646.979 572.921 625.614 571.705 620.968 574.993C620.968 574.993 623.448 539.431 599.579 516.119L630.021 504.166C630.021 504.166 641.547 498.761 645.11 493.114C647.352 489.651 650.532 487.04 654.205 485.646C654.205 485.646 662.704 479.071 662.977 475.486C663.25 471.901 673.37 467.505 673.37 467.505L667.64 414.225L670.658 325.77C670.658 325.77 680.257 251.655 700.555 255.844C720.852 260.032 735.891 357.143 735.891 357.143Z" fill="black"/>
<path d="M739.199 357.143L748.798 368.205C748.798 368.205 756.479 429.159 760.315 434.861C764.151 440.563 773.213 463.244 764.705 480.278C764.705 480.278 761.968 489.547 763.614 493.429C765.259 497.311 751.27 516.741 751.27 516.741C751.27 516.741 732.89 534.666 729.046 537.359C725.201 540.052 704.912 561.563 698.058 561.86C691.204 562.157 688.963 571.426 688.963 571.426L650.286 572.921C650.286 572.921 628.905 571.705 624.275 574.993C624.275 574.993 626.755 539.431 602.886 516.119L633.328 504.166C633.328 504.166 644.854 498.761 648.417 493.114C650.659 489.651 653.839 487.04 657.512 485.646C657.512 485.646 666.011 479.071 666.284 475.486C666.557 471.901 676.677 467.505 676.677 467.505L670.947 414.225L673.965 325.77C673.965 325.77 683.564 251.655 703.862 255.844C724.159 260.032 739.199 357.143 739.199 357.143Z" fill="#E8F5FF"/>
<path opacity="0.1" d="M703.515 446.499C703.515 446.499 731.766 438.392 739.174 448.301C746.582 458.209 703.515 446.499 703.515 446.499Z" fill="black"/>
<path opacity="0.1" d="M696.933 460.092C706.532 467.415 736.156 467.712 736.156 467.712L696.933 460.092Z" fill="black"/>
<path opacity="0.1" d="M711.468 496.699C712.295 496.996 731.832 519.713 740.034 512.84C748.236 505.968 711.468 496.699 711.468 496.699Z" fill="black"/>
<path opacity="0.1" d="M448.351 306.043C448.351 306.043 454.089 349.082 451.261 366.61C448.434 384.139 458.752 405.857 458.752 405.857L448.351 306.043Z" fill="black"/>
<path d="M321.323 323.545C314.709 329.193 309.88 342.56 306.383 357.252C300.281 382.878 298.289 412.594 298.289 412.594C298.289 412.594 245.622 399.443 249.459 393.471C251.873 389.715 248.632 361.413 245.928 340.894C244.316 328.769 242.877 319.356 242.877 319.356C242.877 319.356 339.43 307.998 321.323 323.545Z" fill="#FFCCD0"/>
<path opacity="0.1" d="M321.323 322.347C314.709 328.004 309.88 341.362 306.383 356.054C295.89 359.525 284.73 359.838 274.087 356.96C263.444 354.081 253.713 348.119 245.928 339.705C244.316 327.571 242.877 318.158 242.877 318.158C242.877 318.158 339.43 306.809 321.323 322.347Z" fill="black"/>
<path d="M349.632 290.154C349.638 305.821 344.556 320.985 335.286 332.962C326.015 344.94 313.155 352.958 298.98 355.598C284.805 358.238 270.23 355.33 257.834 347.388C245.438 339.446 236.021 326.982 231.249 312.203C226.477 297.424 226.658 281.281 231.759 266.633C236.861 251.985 246.555 239.776 259.125 232.166C271.695 224.556 286.331 222.036 300.442 225.052C314.554 228.068 327.231 236.426 336.23 248.647C344.902 260.418 349.63 275.06 349.632 290.154Z" fill="#FFCCD0"/>
<path opacity="0.1" d="M397.652 705.009H380.29L378.826 671.6L377.297 637.019C377.297 637.019 381.241 636.38 387.524 635.425L390.062 635.056H390.269C391.641 642.073 392.997 649.279 394.304 656.476C396.478 669.253 397.61 682.214 397.685 695.209C397.685 696.11 397.685 697.01 397.685 697.857C397.735 700.262 397.685 702.667 397.652 705.009Z" fill="black"/>
<path d="M394.32 705.009H176.577C177.52 702.676 178.148 701.262 178.148 701.262C178.148 701.262 195.569 618.23 204.424 583.1C204.426 583.07 204.426 583.04 204.424 583.01C205.53 578.238 206.866 573.532 208.425 568.913C208.526 568.599 208.656 568.297 208.814 568.012C213.196 560.247 218.686 551.879 211.005 539.926C203.324 527.973 206.044 475.378 206.044 475.378C206.044 475.378 215.37 430.547 225.242 406.64C226.74 402.937 228.866 399.576 231.509 396.732C232.368 395.816 233.286 394.967 234.254 394.192C234.99 393.589 235.758 393.033 236.553 392.525L236.71 392.417C240.857 389.856 245.462 388.298 250.211 387.85C253.585 387.466 256.99 387.569 260.339 388.157C276.346 390.715 289.161 394.993 299.347 399.867C326.954 413.081 335.312 430.79 335.478 431.159L335.544 431.312C336.652 434.132 352.857 475.351 358.694 494.582C360.207 499.59 361.034 503.112 360.703 504.076C359.05 508.85 373.32 568.615 373.32 568.615C373.32 568.615 379.934 597.44 386.549 631.228C386.838 632.633 387.111 634.038 387.375 635.461C388.558 641.595 389.732 647.847 390.864 654.089C393.059 666.954 394.191 680.007 394.246 693.092C394.367 697.169 394.392 701.142 394.32 705.009Z" fill="#FF748E"/>
<path opacity="0.1" d="M248.913 367.295C248.913 367.295 233.89 360.99 234.072 370.556C234.254 380.122 237.735 384.698 236.635 386.094C235.536 387.49 237.181 395.858 237.181 395.858C237.181 395.858 257.479 395.858 266.805 400.434C276.131 405.01 310.509 414.18 314.899 416.972C319.289 419.764 335.569 432.285 335.569 432.285L337.032 408.577C337.032 408.577 320.207 393.435 292.601 385.671C264.994 377.906 248.913 367.295 248.913 367.295Z" fill="black"/>
<path d="M248.913 366.097C248.913 366.097 233.89 359.792 234.072 369.358C234.254 378.924 237.735 383.5 236.635 384.896C235.536 386.292 237.181 394.66 237.181 394.66C237.181 394.66 257.479 394.66 266.805 399.245C276.131 403.83 310.509 412.991 314.899 415.774C319.289 418.557 335.569 431.087 335.569 431.087L337.049 407.451C337.049 407.451 320.224 392.309 292.617 384.545C265.011 376.78 248.913 366.097 248.913 366.097Z" fill="#FF748E"/>
<path opacity="0.1" d="M294.262 423.151C294.262 423.151 322.968 457.011 321.505 466.388C320.042 475.765 294.262 423.151 294.262 423.151Z" fill="black"/>
<path opacity="0.1" d="M247.631 545.466C247.631 545.466 226.59 566.589 220.389 567.787C214.188 568.985 225.143 572.966 232.27 569.787C239.397 566.607 254.593 558.239 254.593 558.239L247.631 545.466Z" fill="black"/>
<path d="M402.869 705.009H353.799C346.937 698.524 340.447 692.516 336.313 688.903C329.699 683.121 324.928 674.608 321.885 667.763C321.199 666.204 320.604 664.745 320.1 663.421C319.196 661.14 318.402 658.81 317.718 656.44L354.056 632.93C356.064 634.791 357.951 636.801 359.703 638.947L360.141 639.497C362.158 642.091 363.936 645.036 364.093 647.45C364.275 650.261 371.451 661.133 378.785 671.573C386.226 682.193 393.849 692.344 394.353 693.029C394.353 693.029 395.61 694.894 397.661 697.758C399.107 699.83 400.893 702.316 402.869 705.009Z" fill="#FFCCD0"/>
<path opacity="0.1" d="M336.23 248.647C334.486 252.934 332.923 257.384 332.691 262.158C332.038 275.94 333.097 306.755 319.091 313.673C312.154 317.077 304.729 309.601 297.123 309.421C291.65 309.295 286.631 313.078 283.291 317.807C279.951 322.536 277.875 328.148 275.453 333.498C273.248 338.355 270.708 343.022 267.855 347.46C267.002 348.818 266.063 350.11 265.044 351.324C256.503 347.398 248.898 341.4 242.808 333.787C236.718 326.174 232.303 317.147 229.901 307.393C227.498 297.639 227.17 287.417 228.943 277.505C230.716 267.592 234.542 258.252 240.13 250.194C245.718 242.137 252.921 235.576 261.189 231.01C269.457 226.445 278.573 223.996 287.841 223.85C297.109 223.705 306.286 225.866 314.672 230.169C323.057 234.472 330.431 240.804 336.23 248.683V248.647Z" fill="black"/>
<path d="M331.592 259.726C330.93 273.508 331.997 304.323 317.983 311.232C311.046 314.636 303.622 307.169 296.015 306.989C290.542 306.854 285.531 310.646 282.183 315.366C278.834 320.086 276.776 325.707 274.345 331.066C272.139 335.922 269.599 340.59 266.747 345.028C265.044 347.658 263.159 350.298 260.538 351.775C255.974 354.369 250.443 352.91 245.548 351.243C239.198 349.064 232.942 346.608 226.78 343.875C226.921 342.862 226.993 341.838 226.995 340.813C226.813 341.191 226.615 341.542 226.416 341.921L226.027 342.659C225.325 344.01 224.638 345.361 224.01 346.749C223.77 347.28 223.539 347.83 223.332 348.379C222.501 350.424 221.979 352.602 221.786 354.829C221.364 360.837 224.085 366.538 226.499 371.943C235.784 392.85 241.521 417.296 234.535 439.23C231.509 448.769 226.267 457.245 222.439 466.46C215.748 482.781 213.778 500.935 216.792 518.506C218.702 529.423 222.53 540.233 221.588 551.303C219.934 570.354 204.853 584.532 189.748 594.278C181.588 599.521 171.6 604.187 162.935 600.043C168.458 593.017 169.88 583.298 171.071 574.128C174.328 549.117 177.594 524.094 180.868 499.059C182.175 489.096 183.478 479.134 184.779 469.171C187.21 450.454 189.674 431.528 188.152 412.694C187.044 398.813 183.919 384.076 189.442 371.511C192.361 364.854 197.561 359.341 199.182 352.171C200.513 346.343 199.273 340.146 200.149 334.21C200.629 331.509 201.441 328.891 202.563 326.427C203.993 323.084 205.858 319.983 208.103 317.222C205.887 316.519 203.82 315.555 202.563 313.538C206.118 311.015 206.656 305.332 205.044 301.062C203.431 296.792 200.207 293.541 197.305 290.172C194.403 286.803 191.608 282.876 191.244 278.282C190.542 269.535 198.562 262.762 199.975 254.132C201.406 245.35 195.75 236.811 196.205 227.92C196.734 217.174 205.796 209.364 214.742 204.833C228.242 198.025 243.154 195.228 257.966 196.727C270.021 197.97 281.687 202.032 293.708 203.608C300.959 204.509 308.309 204.599 315.511 205.986C322.712 207.374 329.93 210.301 334.998 216.057C348.359 231.235 332.353 243.728 331.592 259.726Z" fill="#FFE0D0"/>
<path opacity="0.1" d="M320.414 667.771C316.197 665.781 308.524 666.97 295.354 662.601C282.183 658.232 279.645 638.488 279.645 638.488V638.425C279.488 637.974 278.264 635.038 269.98 624.751C260.827 613.392 241.042 556.023 241.042 556.023C241.042 556.023 223.498 535.494 224.051 527.928C224.605 520.362 220.934 500.23 221.298 477.711C221.662 455.191 260.794 440.257 260.794 440.257C336.139 425.709 318.396 520.344 316.387 527.514C314.378 534.684 324.804 554.05 324.804 554.05C323.332 562.481 330.84 575.533 330.84 575.533C330.84 575.533 332.658 587.081 333.03 591.468C333.051 591.67 333.093 591.87 333.155 592.062C334.362 596.197 344.2 599.944 348.202 602.223C352.41 604.619 365.945 625.535 365.945 625.535C368.864 640.893 324.614 669.789 320.414 667.771Z" fill="black"/>
<path d="M322.605 664.168C318.396 662.169 310.715 663.367 297.553 658.989C284.39 654.611 281.844 634.885 281.844 634.885V634.822C281.695 634.362 280.463 631.435 272.179 621.148C263.026 609.789 243.241 552.411 243.241 552.411C243.241 552.411 225.697 531.891 226.242 524.325C226.788 516.759 223.134 496.627 223.498 474.126C223.861 451.624 262.968 436.699 262.968 436.699C338.314 422.151 320.571 516.786 318.562 523.956C316.553 531.126 326.978 550.492 326.978 550.492C325.507 558.923 333.014 571.975 333.014 571.975C333.014 571.975 334.833 583.523 335.213 587.91C335.227 588.113 335.266 588.313 335.329 588.504C336.536 592.639 346.375 596.386 350.385 598.665C354.585 601.052 368.128 621.977 368.128 621.977C371.063 637.308 326.813 666.204 322.605 664.168Z" fill="#FF748E"/>
<path opacity="0.1" d="M264.457 486.106C264.457 486.106 297.371 523.938 305.961 523.938C314.552 523.938 264.457 486.106 264.457 486.106Z" fill="black"/>
<path d="M322.605 664.168C318.396 662.169 310.715 663.367 297.553 658.989C284.391 654.611 281.844 634.885 281.844 634.885V634.822C290.567 628.516 312.658 610.708 321.365 604.196C327.491 599.629 332.493 592.918 335.42 588.468C336.627 592.603 346.466 596.35 350.476 598.629C354.676 601.016 368.219 621.941 368.219 621.941C371.063 637.308 326.813 666.204 322.605 664.168Z" fill="#FF748E"/>
<g opacity="0.1">
<path d="M202.613 313.637C202.654 313.709 202.712 313.772 202.762 313.844C203.01 313.501 203.266 313.159 203.531 312.835C203.249 313.133 202.942 313.402 202.613 313.637Z" fill="black"/>
<path d="M221.794 354.928C222.142 349.928 224.597 345.524 226.896 341.128C225.391 340.497 223.886 339.858 222.398 339.191C222.54 338.181 222.611 337.16 222.613 336.138C220.29 340.641 217.76 345.073 217.404 350.144C216.982 356.162 219.703 361.854 222.117 367.259C231.41 388.157 237.14 412.603 230.153 434.546C227.119 444.076 221.885 452.561 218.057 461.776C211.368 478.095 209.401 496.246 212.419 513.813C214.312 524.739 218.148 535.539 217.206 546.61C215.552 565.661 200.48 579.839 185.366 589.576C179.19 593.558 171.972 597.206 165.068 596.945C164.429 598.065 163.716 599.134 162.935 600.142C171.608 604.313 181.588 599.62 189.748 594.359C204.87 584.631 219.975 570.489 221.629 551.402C222.572 540.332 218.735 529.531 216.834 518.605C213.815 501.04 215.776 482.89 222.456 466.568C226.259 457.362 231.55 448.868 234.552 439.338C241.538 417.395 235.8 392.949 226.515 372.051C224.109 366.61 221.373 360.945 221.794 354.928Z" fill="black"/>
<path d="M334.982 216.165C334.168 215.256 333.295 214.413 332.369 213.643C342.39 227.803 327.921 239.837 327.202 255.078C326.557 268.86 327.615 299.684 313.601 306.584C306.672 309.997 299.24 302.521 291.641 302.341C286.16 302.215 281.15 306.007 277.801 310.727C274.453 315.447 272.394 321.068 269.971 326.418C267.761 331.274 265.219 335.941 262.365 340.38C260.711 343.019 258.777 345.65 256.147 347.136C251.6 349.721 246.069 348.271 241.166 346.595C236.398 344.962 231.674 343.161 226.995 341.191C226.985 342.129 226.913 343.065 226.78 343.992C232.948 346.731 239.207 349.187 245.556 351.361C250.451 353.036 255.982 354.486 260.538 351.901C263.159 350.415 265.06 347.775 266.755 345.136C269.611 340.703 272.151 336.039 274.353 331.183C276.784 325.833 278.834 320.203 282.191 315.483C285.548 310.763 290.55 306.98 296.023 307.106C303.63 307.286 311.063 314.763 317.991 311.349C332.005 304.449 330.939 273.625 331.592 259.843C332.353 243.818 348.359 231.334 334.982 216.165Z" fill="black"/>
</g>
<path opacity="0.1" d="M226.036 342.668C225.333 344.019 224.647 345.37 224.018 346.758C223.779 347.289 223.547 347.839 223.34 348.388C219.008 343.632 208.458 332.327 202.572 328.823C204.003 325.481 205.868 322.381 208.111 319.618C208.111 319.618 222.142 327.697 226.036 342.668Z" fill="black"/>
<path d="M226.424 341.93C223.175 325.905 208.111 317.231 208.111 317.231C205.867 319.992 204.001 323.093 202.572 326.436C208.781 330.139 220.223 342.551 224.018 346.758L226.424 341.93Z" fill="#FF748E"/>
</g>
<defs>
<linearGradient id="paint0_linear_2_2" x1="603.581" y1="85.9418" x2="603.581" y2="69.3857" gradientUnits="userSpaceOnUse">
<stop stop-color="#808080" stop-opacity="0.25"/>
<stop offset="0.54" stop-color="#808080" stop-opacity="0.12"/>
<stop offset="1" stop-color="#808080" stop-opacity="0.1"/>
</linearGradient>
<linearGradient id="paint1_linear_2_2" x1="465.341" y1="705.009" x2="465.341" y2="-3.74629e-06" gradientUnits="userSpaceOnUse">
<stop stop-color="#808080" stop-opacity="0.25"/>
<stop offset="0.54" stop-color="#808080" stop-opacity="0.12"/>
<stop offset="1" stop-color="#808080" stop-opacity="0.1"/>
</linearGradient>
<clipPath id="clip0_2_2">
<rect width="898" height="705" fill="white"/>
</clipPath>
</defs>
</svg>
